<?xml version="1.0" encoding="UTF-8"?>
<svg xmlns="http://www.w3.org/2000/svg" width="429" height="319" viewBox="0 0 429 319" fill="none">
  <path d="M332.411 156.877H345.785V148.293H349.594V169.299H345.785V160.715H332.411V169.299H328.603V148.293H332.411V156.877Z" fill="black"></path>
  <path d="M324.97 169.299H311.229C310.878 169.299 310.497 169.26 310.087 169.182C309.687 169.094 309.286 168.962 308.886 168.786C308.495 168.61 308.119 168.386 307.758 168.112C307.396 167.829 307.074 167.492 306.791 167.102C306.518 166.701 306.298 166.242 306.132 165.725C305.966 165.197 305.883 164.606 305.883 163.952V153.64C305.883 153.288 305.922 152.912 306 152.512C306.088 152.102 306.22 151.701 306.396 151.311C306.571 150.91 306.801 150.529 307.084 150.168C307.367 149.807 307.704 149.489 308.095 149.216C308.495 148.933 308.954 148.708 309.472 148.542C309.989 148.376 310.575 148.293 311.229 148.293H324.97V152.102H311.229C310.731 152.102 310.351 152.233 310.087 152.497C309.823 152.761 309.691 153.151 309.691 153.669V163.952C309.691 164.44 309.823 164.821 310.087 165.095C310.36 165.358 310.741 165.49 311.229 165.49H324.97V169.299Z" fill="black"></path>
  <path d="M301.723 169.299H297.914V164.143H284.525V169.299H280.717V158.796C280.717 157.263 280.98 155.852 281.508 154.562C282.035 153.273 282.768 152.165 283.705 151.237C284.643 150.31 285.751 149.587 287.03 149.069C288.31 148.552 289.706 148.293 291.22 148.293H299.804C300.067 148.293 300.316 148.342 300.551 148.439C300.785 148.537 300.99 148.674 301.166 148.85C301.342 149.025 301.479 149.23 301.576 149.465C301.674 149.699 301.723 149.948 301.723 150.212V169.299ZM284.525 160.334H297.914V152.102H291.22C291.103 152.102 290.854 152.121 290.473 152.16C290.102 152.189 289.667 152.272 289.169 152.409C288.681 152.546 288.163 152.756 287.616 153.039C287.069 153.322 286.566 153.713 286.107 154.211C285.648 154.709 285.268 155.334 284.965 156.086C284.672 156.828 284.525 157.731 284.525 158.796V160.334Z" fill="black"></path>
  <path d="M277.348 160.803C277.348 162.082 277.128 163.259 276.688 164.333C276.249 165.407 275.639 166.335 274.857 167.116C274.076 167.897 273.148 168.508 272.074 168.947C271.01 169.377 269.848 169.592 268.588 169.592H263.432C262.172 169.592 261.005 169.377 259.931 168.947C258.856 168.508 257.929 167.897 257.147 167.116C256.366 166.335 255.751 165.407 255.302 164.333C254.862 163.259 254.643 162.082 254.643 160.803V156.789C254.643 155.52 254.862 154.348 255.302 153.273C255.751 152.189 256.366 151.262 257.147 150.49C257.929 149.709 258.856 149.099 259.931 148.659C261.005 148.22 262.172 148 263.432 148H268.588C269.848 148 271.01 148.22 272.074 148.659C273.148 149.099 274.076 149.709 274.857 150.49C275.639 151.262 276.249 152.189 276.688 153.273C277.128 154.348 277.348 155.52 277.348 156.789V160.803ZM273.539 156.789C273.539 156.037 273.417 155.358 273.173 154.753C272.938 154.138 272.602 153.615 272.162 153.186C271.732 152.746 271.21 152.409 270.595 152.175C269.989 151.931 269.32 151.809 268.588 151.809H263.432C262.689 151.809 262.011 151.931 261.396 152.175C260.79 152.409 260.268 152.746 259.828 153.186C259.389 153.615 259.047 154.138 258.803 154.753C258.568 155.358 258.451 156.037 258.451 156.789V160.803C258.451 161.555 258.568 162.238 258.803 162.854C259.047 163.459 259.389 163.981 259.828 164.421C260.268 164.851 260.79 165.188 261.396 165.432C262.011 165.666 262.689 165.783 263.432 165.783H268.559C269.301 165.783 269.975 165.666 270.58 165.432C271.195 165.188 271.723 164.851 272.162 164.421C272.602 163.981 272.938 163.459 273.173 162.854C273.417 162.238 273.539 161.555 273.539 160.803V156.789Z" fill="black"></path>
  <path d="M252.021 169.299H238.28C237.929 169.299 237.548 169.26 237.138 169.182C236.737 169.094 236.337 168.962 235.937 168.786C235.546 168.61 235.17 168.386 234.809 168.112C234.447 167.829 234.125 167.492 233.842 167.102C233.568 166.701 233.349 166.242 233.183 165.725C233.017 165.197 232.934 164.606 232.934 163.952V153.64C232.934 153.288 232.973 152.912 233.051 152.512C233.139 152.102 233.271 151.701 233.446 151.311C233.622 150.91 233.852 150.529 234.135 150.168C234.418 149.807 234.755 149.489 235.146 149.216C235.546 148.933 236.005 148.708 236.522 148.542C237.04 148.376 237.626 148.293 238.28 148.293H252.021V152.102H238.28C237.782 152.102 237.401 152.233 237.138 152.497C236.874 152.761 236.742 153.151 236.742 153.669V163.952C236.742 164.44 236.874 164.821 237.138 165.095C237.411 165.358 237.792 165.49 238.28 165.49H252.021V169.299Z" fill="black"></path>
  <path d="M219.691 160.803C219.691 162.082 219.472 163.259 219.032 164.333C218.593 165.407 217.982 166.335 217.201 167.116C216.42 167.897 215.492 168.508 214.418 168.947C213.354 169.377 212.191 169.592 210.932 169.592H205.775C204.516 169.592 203.349 169.377 202.274 168.947C201.2 168.508 200.272 167.897 199.491 167.116C198.71 166.335 198.095 165.407 197.646 164.333C197.206 163.259 196.986 162.082 196.986 160.803V156.789C196.986 155.52 197.206 154.348 197.646 153.273C198.095 152.189 198.71 151.262 199.491 150.49C200.272 149.709 201.2 149.099 202.274 148.659C203.349 148.22 204.516 148 205.775 148H210.932C212.191 148 213.354 148.22 214.418 148.659C215.492 149.099 216.42 149.709 217.201 150.49C217.982 151.262 218.593 152.189 219.032 153.273C219.472 154.348 219.691 155.52 219.691 156.789V160.803ZM215.883 156.789C215.883 156.037 215.761 155.358 215.517 154.753C215.282 154.138 214.945 153.615 214.506 153.186C214.076 152.746 213.554 152.409 212.938 152.175C212.333 151.931 211.664 151.809 210.932 151.809H205.775C205.033 151.809 204.354 151.931 203.739 152.175C203.134 152.409 202.611 152.746 202.172 153.186C201.732 153.615 201.391 154.138 201.146 154.753C200.912 155.358 200.795 156.037 200.795 156.789V160.803C200.795 161.555 200.912 162.238 201.146 162.854C201.391 163.459 201.732 163.981 202.172 164.421C202.611 164.851 203.134 165.188 203.739 165.432C204.354 165.666 205.033 165.783 205.775 165.783H210.902C211.645 165.783 212.318 165.666 212.924 165.432C213.539 165.188 214.066 164.851 214.506 164.421C214.945 163.981 215.282 163.459 215.517 162.854C215.761 162.238 215.883 161.555 215.883 160.803V156.789Z" fill="white"></path>
  <path d="M195.126 152.102H186.732V169.299H182.924V152.102H174.516V148.293H195.126V152.102Z" fill="white"></path>
  <path d="M172.875 157.082C172.875 157.951 172.768 158.728 172.553 159.411C172.338 160.095 172.045 160.7 171.674 161.228C171.312 161.745 170.893 162.189 170.414 162.561C169.936 162.932 169.433 163.234 168.905 163.469C168.388 163.703 167.86 163.874 167.323 163.981C166.796 164.089 166.298 164.143 165.829 164.143H157.216V160.334H165.829C166.317 160.295 166.757 160.197 167.147 160.041C167.548 159.875 167.89 159.655 168.173 159.382C168.456 159.108 168.676 158.781 168.832 158.4C168.988 158.01 169.066 157.57 169.066 157.082V155.354C169.018 154.875 168.915 154.436 168.759 154.035C168.603 153.635 168.388 153.293 168.114 153.01C167.851 152.727 167.528 152.507 167.147 152.351C166.767 152.185 166.327 152.102 165.829 152.102H157.245C156.737 152.102 156.352 152.233 156.088 152.497C155.824 152.761 155.692 153.142 155.692 153.64V169.299H151.884V153.64C151.884 152.663 152.06 151.833 152.411 151.149C152.772 150.466 153.217 149.914 153.744 149.494C154.281 149.074 154.862 148.771 155.487 148.586C156.112 148.391 156.688 148.293 157.216 148.293H165.829C166.688 148.293 167.46 148.405 168.144 148.63C168.827 148.845 169.428 149.138 169.945 149.509C170.473 149.87 170.917 150.29 171.278 150.769C171.649 151.247 171.952 151.75 172.187 152.277C172.431 152.795 172.606 153.322 172.714 153.859C172.821 154.387 172.875 154.885 172.875 155.354V157.082Z" fill="white"></path>
  <path d="M148.515 155.324C148.515 156.193 148.402 156.97 148.178 157.653C147.963 158.337 147.675 158.942 147.313 159.47C146.952 159.987 146.527 160.432 146.039 160.803C145.561 161.174 145.062 161.481 144.545 161.726C144.027 161.96 143.5 162.131 142.963 162.238C142.436 162.346 141.938 162.399 141.469 162.399H139.931V169.299H136.093V162.399H134.569C134.101 162.399 133.598 162.346 133.061 162.238C132.533 162.131 132.006 161.96 131.479 161.726C130.961 161.481 130.463 161.174 129.984 160.803C129.506 160.432 129.081 159.987 128.71 159.47C128.349 158.942 128.056 158.337 127.831 157.653C127.616 156.96 127.509 156.184 127.509 155.324V148.293H131.317V155.324C131.317 155.822 131.396 156.271 131.552 156.672C131.708 157.062 131.928 157.399 132.211 157.683C132.494 157.966 132.836 158.186 133.236 158.342C133.646 158.488 134.101 158.562 134.599 158.562H141.469C141.83 158.503 142.201 158.43 142.582 158.342C142.963 158.244 143.31 158.083 143.622 157.858C143.935 157.634 144.193 157.321 144.398 156.921C144.604 156.521 144.706 155.988 144.706 155.324V148.293H148.515V155.324Z" fill="white"></path>
  <path d="M124.682 155.354C124.682 156.223 124.574 156.999 124.359 157.683C124.145 158.366 123.852 158.972 123.48 159.499C123.119 160.017 122.699 160.461 122.221 160.832C121.742 161.203 121.239 161.511 120.712 161.755C120.194 161.989 119.667 162.16 119.13 162.268C118.603 162.375 118.104 162.429 117.636 162.429L125.59 169.299H119.701L111.762 162.429H109.022V158.62H117.636C118.114 158.581 118.549 158.483 118.939 158.327C119.34 158.161 119.682 157.941 119.965 157.668C120.258 157.395 120.482 157.067 120.639 156.687C120.795 156.296 120.873 155.852 120.873 155.354V152.951C120.873 152.736 120.844 152.575 120.785 152.468C120.736 152.351 120.668 152.268 120.58 152.219C120.502 152.16 120.414 152.126 120.316 152.116C120.229 152.106 120.146 152.102 120.067 152.102H107.499V169.299H103.69V150.212C103.69 149.948 103.739 149.699 103.837 149.465C103.935 149.23 104.066 149.025 104.232 148.85C104.408 148.674 104.613 148.537 104.848 148.439C105.082 148.342 105.336 148.293 105.609 148.293H120.067C120.917 148.293 121.635 148.449 122.221 148.762C122.807 149.064 123.28 149.45 123.642 149.919C124.013 150.378 124.276 150.876 124.433 151.413C124.599 151.95 124.682 152.453 124.682 152.922V155.354Z" fill="white"></path>
  <path d="M100.087 169.305H86.3467C85.9951 169.305 85.6143 169.266 85.2041 169.188C84.8037 169.1 84.4033 168.968 84.0029 168.792C83.6123 168.616 83.2363 168.392 82.875 168.118C82.5137 167.835 82.1914 167.498 81.9082 167.107C81.6348 166.707 81.415 166.248 81.249 165.73C81.083 165.203 81 164.612 81 163.958V153.646C81 153.294 81.0391 152.918 81.1172 152.518C81.2051 152.107 81.3369 151.707 81.5127 151.316C81.6885 150.916 81.918 150.535 82.2012 150.174C82.4844 149.812 82.8213 149.495 83.2119 149.222C83.6123 148.938 84.0713 148.714 84.5889 148.548C85.1064 148.382 85.6924 148.299 86.3467 148.299H100.087V152.107H86.3467C85.8486 152.107 85.4678 152.239 85.2041 152.503C84.9404 152.767 84.8086 153.157 84.8086 153.675V163.958C84.8086 164.446 84.9404 164.827 85.2041 165.101C85.4775 165.364 85.8584 165.496 86.3467 165.496H100.087V169.305Z" fill="white"></path>
</svg>
